<?xml version="1.0" encoding="utf-8"?>
<!-- Generator: Adobe Illustrator 23.0.4, SVG Export Plug-In . SVG Version: 6.00 Build 0)  -->
<svg version="1.0" id="Layer_1" xmlns="http://www.w3.org/2000/svg" xmlns:xlink="http://www.w3.org/1999/xlink" x="0px" y="0px"
	 viewBox="0 0 200 200" style="enable-background:new 0 0 200 200;" xml:space="preserve">
<style type="text/css">
	.st0{fill:#FFA920;}
	.st1{fill:#FFEE20;}
	.st2{fill:#473C77;}
	.st3{fill:#5F4C9B;}
	.st4{fill:#7458B7;}
	.st5{fill:#9594AA;stroke:#9594AA;stroke-width:0.225;stroke-miterlimit:10;}
</style>
<g id="lightbulb">
	<g id="L_2_">
		<g>
			<g>
				<g>
					<g>
						<path class="st0" d="M87.09,10.18c-0.25-0.36-0.97-1.02-0.98-0.74l1.06,1.28L87.09,10.18z"/>
						<path class="st0" d="M83.92,9.03c0.39,0.74,1.21,1.92,2.42,2.86c-0.97-1.28-0.46-0.86-1.62-2.37
							c0.01-0.29,0.64,0.11,1.05,0.56c-0.25-0.35,0.49,0.02-0.17-0.79c-1.1-0.71-1.39-0.49-0.89,0.51
							C84.38,9.61,84.13,9.26,83.92,9.03z"/>
						<path class="st0" d="M68.69,24.23l0.24-0.01C68.82,24.19,68.75,24.2,68.69,24.23z"/>
						<path class="st0" d="M61.04,35.23c0.01-0.11-0.11-0.22-0.24-0.3C60.85,35.07,60.9,35.18,61.04,35.23z"/>
						<path class="st0" d="M58.34,36.4c0.07-0.02,0.11-0.05,0.16-0.07C58.35,36.31,58.25,36.31,58.34,36.4z"/>
						<path class="st0" d="M68.69,24.23l-0.63,0.01C68.5,24.56,68.5,24.31,68.69,24.23z"/>
						<path class="st0" d="M84.88,13.84c-0.01-0.11-0.09-0.25-0.2-0.43c0.01,0.09,0.02,0.17,0.02,0.25
							C84.76,13.72,84.81,13.77,84.88,13.84z"/>
						<path class="st0" d="M70.94,18.59l0.06-0.09c-0.13-0.14-0.3-0.29-0.49-0.47L70.94,18.59z"/>
						<path class="st0" d="M73.48,14.76c-0.11,0.04,0.98,0.93,1.44,1.34c-0.42-0.4-0.59-0.63-0.62-0.76
							C74.08,15.17,73.82,14.99,73.48,14.76z"/>
						<path class="st0" d="M79.99,10.77l-0.06-0.22C79.95,10.61,79.95,10.69,79.99,10.77z"/>
						<path class="st0" d="M68.82,21.09c-0.18-0.11-0.34-0.2-0.44-0.25C68.52,20.94,68.67,21.02,68.82,21.09z"/>
						<path class="st0" d="M84.21,112.8c0,0.1,0,0.16,0,0.25C84.23,112.91,84.24,112.81,84.21,112.8z"/>
						<path class="st0" d="M89.5,119.51l-0.07,0.08c0.02,0.27,0.03,0.53,0.05,0.79L89.5,119.51z"/>
						<path class="st0" d="M54.8,39.37c0.02,0,0.02,0,0.03-0.01C54.74,39.2,54.74,39.27,54.8,39.37z"/>
						<path class="st0" d="M43.34,77.23c1.31-0.27,1.49,0.95,2.97,0.48C45.75,77.71,44.23,76.79,43.34,77.23z"/>
						<path class="st0" d="M84.67,13.79c-0.03,0.05-0.06,0.1-0.11,0.14C84.65,13.91,84.68,13.86,84.67,13.79z"/>
						<path class="st0" d="M46.31,77.72l0.01,0l0.14-0.05C46.4,77.69,46.36,77.7,46.31,77.72z"/>
						<path class="st0" d="M51.47,48.69c0.24,0.08,0.42,0.11,0.61,0.15C51.94,48.78,51.77,48.74,51.47,48.69z"/>
						<path class="st0" d="M56.27,42.86l-0.25,0.08C56.17,42.93,56.23,42.9,56.27,42.86z"/>
						<path class="st0" d="M51.88,52.95c-0.14,0.05-0.33,0.01-0.2,0.2c0.07,0.01,0.12,0.02,0.17,0.02
							C51.69,53.06,51.63,52.97,51.88,52.95z"/>
						<path class="st0" d="M50.51,56.62c0.11,0.02,0.19,0.02,0.29,0.03c-0.01-0.04-0.02-0.1-0.03-0.14L50.51,56.62z"/>
						<path class="st0" d="M73.87,112.72c0,0.4-0.03,0.84-0.08,1.27C73.93,112.99,74.47,112.72,73.87,112.72z"/>
						<path class="st0" d="M84.29,13.31c0.25,0.25,0.36,0.4,0.38,0.49c0.02-0.04,0.02-0.09,0.02-0.14
							C84.55,13.51,84.4,13.37,84.29,13.31z"/>
						<path class="st0" d="M62.15,57.12l-0.4,0.46C61.93,57.48,62.07,57.31,62.15,57.12z"/>
						<path class="st0" d="M56.66,100.88l0.2,0.03C56.87,100.86,56.82,100.84,56.66,100.88z"/>
						<path class="st0" d="M61.34,59.25c-0.5-0.08-0.81-0.07-1.03-0.03c0.1,0.06,0.17,0.12,0.32,0.19L61.34,59.25z"/>
						<path class="st0" d="M73.8,114l0-0.01L73.8,114z"/>
						<path class="st0" d="M77.7,111.18c-0.48-0.1-0.42,1.77-0.64,2.81c-0.68,0.45-0.13-1.38-0.22-2.35
							c-0.42,0.44-0.93,2.09-1.21,1.99c0.02-0.3-0.02-0.42,0.1-0.79c-0.62,1.41-1.16-0.12-1.95,1.62c-0.01-0.17,0-0.32,0.02-0.46
							c-0.09,0.92-0.24,1.85-0.38,2.51c-0.25-0.01-0.67,1.07-0.54-0.13c0.14,0.06,0.25-0.42,0.38-0.77l-0.35,0.47
							c0.11-1.74,0.45-0.53,0.69-1.79c-0.57,0.49-1.43,1.76-1.69,1.19c0.3-1.67,0.96-0.36,0.8-1.95c0.13,0.25,0.27,0.51,0.42,0.75
							c0.1-2.7,0.29,0.24,0.47-2.64c-0.57-0.62-0.93,0.67-1.5,0.04c-0.38,0.88-0.28,1.37-0.66,2.25c-1.48,1.41,0.33-4.33-0.96-2.34
							c-0.49,1.03-1.21,3.06-1.39,1.82l0.76-1.78c-0.57-0.37-1.24,2.51-1.51,1.04c0.38-0.67,0.71-0.41,0.69-0.67
							c0.08-1.59-0.66,0.92-1,0.79l0.52-1.62c-0.75,0.03-1.93,0.85-2.81,0.78c0.26-0.44,0.6-0.87,0.66-1.41
							c-1.24,0.35-1.77-1.13-1.89-2.44l-1.09,1.05c-0.06-0.06,0.25-0.63,0.48-0.82c0.03-0.64-0.54,0.76-1.01,1.15
							c-0.24-0.02,0.27-0.85,0.61-1.13c-1.15,0.68-3.1,1.03-2.54-0.62l0.38-0.24c0.05-0.76-2.5,1.84-1.91,0.47l0.25-0.12
							c-0.16-0.66-0.75-0.92-1.08-1.4c-0.34-0.46-0.55-1,0.12-2.01c-0.9,0.56-0.87,0.19-0.92-0.1c-0.05-0.29-0.17-0.5-1.42,0.26
							c0.89-1.36,1.44-1.48,1.84-2.69c0.02-0.26-1.77,0.58-2.19,0.44l1.37-0.71c-0.54,0.13-1.08,0.25-1.63,0.37l1.56-1l-0.48-0.07
							c-0.04,0.14-0.52,0.5-0.93,0.68c-0.84-0.12,0.54-1.45,1.27-1.75c-0.53-0.14-1.08-0.28-1.59-0.48c0.59-0.19,0.85-0.1,1.26-0.12
							c-1.65,0.04,1.49-0.66-0.02-0.62c-0.31,0.18-0.88,0.28-1.17,0.37c0.8-0.56,0.6-1.07,0.12-1.38l1.04-0.23
							c0.03-0.4-0.2-0.74-0.47-1.1c-0.25-0.37-0.52-0.75-0.61-1.18c-0.41,0.41-2.23,0.74-2.46,0.5l1.57-0.43
							c-1.03,0.03-0.54,0.4-1.83,0.29c0.11-0.39,1.77-0.58,2.33-0.5c-0.22-0.09-0.42-0.19-0.63-0.3c0.47-0.11,0.74-0.07,1.35-0.16
							c-1.02,0.01,1.5-0.96-0.27-0.9l0.47-0.1c-0.15-0.85-0.7-1.2-0.89-1.92c-1.4,0.13-1.13-0.19-2.27-0.33
							c0.41-0.63,1.45-1.31,1.31-1.98c-0.71-0.46-1.19-0.1-2.03-0.29c1.28-0.08,1.14-0.77,2.07-0.43c-0.24-0.82-0.28-1.03-1.3-2.12
							c-0.52,0.11-0.76,0.24-1.19,0.16c-0.21-0.2,0.54-0.44,1.16-0.4l0.13,0.05c-0.97-0.63,0.02-1.32,0.89-1.93
							c0.86-0.61,1.67-1.16,0.38-1.75l0.13,0.06l-1.3-1.13c0.27-0.44,0.92,0.38,1.75,0.12c-1.99-1.31,0.49-1.65-0.78-2.72
							c1.92-0.08,1.94-0.67,1.8-1.34c-0.12-0.67-0.4-1.41,0.87-1.65l-0.88-0.11c-0.81-0.4,0.55-0.19,0.78-0.33
							c-0.68-0.11-0.83,0.11-1.28-0.13c-0.64-2.26,2.15-3.92,3.48-5.71c0.42-0.67-4.34-1.64-2.01-2.03l1.51,0.72
							c-1.48-2.06,0.97-3.06-0.15-5.05c0.33,0.21,0.8,0.36,0.75,0.5c1.24,0.06,0.44-1.13-0.49-1.45c0.18-0.2,0.86,0.23,1.38,0.25
							c0.77-0.08-1.19-1.28,0-1.06c0.19,0.04,0.34,0.21,0.4,0.3c-0.48-0.39,0.47-0.89-0.9-1.16c0.82-0.33-0.2-1.27,0.73-1.43
							c-1.34-0.82,1.05-0.68-0.96-1.54c2.1,0.83,2.07-0.32,1.21-1.05c0.59,0.36,0.78-0.04,1.61,0.44c0.13-0.4-0.12-0.92-1.23-1.28
							c2.8,0.28-1.43-2.29,1.95-1.39c-0.64-1.63-0.93-3.04-0.94-4.31c2.05,0.95-0.31,1.26,1.88,2.15c-0.41-1.35-1.94-2.73-0.99-3.49
							c0.4-0.13,0.82,0.55,1.13,0.79c-0.39-1.37,1.05-1.82,0.37-3.21c0.19,0.09,0.35,0.29,0.46,0.45c0.02-0.2,0.49-0.26-0.44-0.68
							l0.17,0.29c-1.48-0.36-2.47-2.04-3.16-2.42c2.5,1.58,1.09-0.55,4.19,1.55c-0.12-0.2-0.49-0.55-1.11-0.83
							c0.26-0.08,0.65,0.04,1.26,0.56c-0.19-0.86-1.28-1.12-0.98-1.67c0.44,0.22,0.56,0.42,1.05,0.74
							c-0.72-0.71-1.45-1.43-0.83-1.72c0.25,0.16,0.63,0.29,0.55,0.42c0.26-0.87-1.58-2.56-0.29-3.02c1.77,1.27,0.79,0.03,2.46,0.86
							l-0.24-0.73l-0.9-0.24c0.25-0.4-0.75-1.41-0.02-1.47l0.51,0.67l0.11-0.94l-0.86,0.1c-0.62-0.88-2.1-1.08-1.34-1.39
							c0.11,0.21,0.25-0.41,1.33-0.09l0,0c-0.4-0.49-0.83-1.01-0.25-1.09c0.57,0.21,1.76,1.07,2.14,1.22
							c-1.25-0.96,0.16-1.17-1.14-2.25c0.29,0.28,1.14,0.77,1.33,0.84l-1.01-0.8c0.46,0.01,0.65,0.08,1.31,0.5
							c0.53-0.45-2.16-1-0.88-1.17c0.06,0.1,0.24,0.17,0.34,0.38c0.86-0.41,0.07-1.72,0.98-2.02c1.72,0.78,0.07,0.77,1.56,1.38
							c0.24-1.05-0.83-3,0.09-3.62l-0.28,0.05c-2.18-1.52,1.51,0.06,0.72-1.03c0.1,0.21,1.16,0.92,0.92,0.74
							c0.72-0.35,0.2-1.53,0.07-2.86l0.5,0.48c0.73-0.01,0.87-0.7,1.38-0.89c-0.49-0.48-0.26-0.63-1.17-1.06
							c3.95,1.06-0.25-3.32,3.09-2.45c-0.08,0.12,0.29,0.62,0.36,0.53l0.08-1.19c-0.99-0.61-0.65-0.3-1.5-0.65
							c-0.48-0.5-0.74-1.05-0.59-1.26c0.35,0.82,1.51,1.08,2.14,1.3c-0.31-0.18-0.58-0.47-0.88-0.66c1.98,0.78-1.83-1.44-0.27-1.22
							l0.47,0.39c-0.09-0.41-0.58-1.09-0.26-1.22c1.15,0.7,0.32,0.61,1.2,1.28c0.18-0.37-1.53-2.17-0.24-1.67
							c0.19,0.37,0.04,0.57,0.23,0.93c1.5,0.62,1.21,0.34,1.59,0.25l-0.05,0l0.98-0.12l-0.44-0.12c-2.46-2.54,0.14-1.21-1.23-3.17
							c1.28,1.87,0.91,0.86,2.07,1.84c0.44,0.12,0.97,0.21,1.26,0.53c-0.75-1.01,1.08,0.18-0.02-1.29c0.39,0.29,0.26-0.24,1.16,0.59
							c-0.03-0.56-0.72-0.46-1.17-0.87c-0.87-1.56,2.51,0.11,1.37-2.06c-0.19-1.22-1.34-2.42-1.44-3.54
							c0.76,0.32,1.19,1.33,1.19,1.33c0.81,0.17,0.92-0.15,0.76-0.81c0.26,0.34,0.59,0.52,1.07,0.8c0.11-0.31-1.18-1.35-0.37-1.17
							c0.35,0.42,0.93,1.07,1.24,1.55c-0.09-0.57-0.51-1.44-0.58-2.02c0.69,0.51,0.79,1.05,1.11,1.52c0-0.56,0.17-1.31-0.71-2.34
							l-0.54-0.13c0.06-0.16,0.89,0.74,0.99,0.99c0.52,0.99-0.7,0.06-1.07-0.26l-0.04-0.41c-2.28-1.75-0.42,1.11-0.89,1.4
							l-1.39-1.57l0.9,1.58c-0.48-0.27-1.4-0.98-1.45-1.4c-1.03-0.39,0.32,0.76-0.77,0.25c-0.16-0.09-0.22-0.17-0.26-0.25l0.2,0.7
							c-0.28-0.35-1.15-0.92-0.76-0.9c-1.39-0.26,0.43,1.89-0.94,1.06l-0.06-0.13c-0.11,1.21,1.1,1.07,1.99,2.78l-3.2-2.05
							l1.11,1.05c-0.11,0.04-0.32,0.12-0.77-0.29c0.57,0.96,0.55,0.37,1.17,1.17c-1.38-0.51-0.34,1.44-2.3,0
							c0.79,0.86,0.99,0.2,1.29,1.11c-2.14-1.52-0.02,0.75-1.23,0.35c-0.98-0.94-0.15-0.84-1.37-1.23c1.62,1.63-0.93,0.38-0.83,0.95
							c1.42,1.12,0.1,1.12,0.2,1.99c-0.46-0.4-1.52,0.34-2.39,0.44l-0.24-0.19c1.41,1.18,0.78,1.46,0.82,2.04
							c-0.88-0.66-1.19-0.97-1.44-1.46l-0.24,0.34c0.42,0.42,0.59,0.71,0.61,1.05l-1.05-0.88c-0.27,0.5,0.67,1.85-0.49,1.91
							c1.03,0.76,3.24,1.58,3.52,2.67c-0.58-0.37-1.57-1.02-1.69-1.35c0.04,0.1,0.34,0.51,0.03,0.45l-0.79-0.91
							c-0.61-0.03,0.7,0.69,0.47,0.84c-0.81-0.57-0.69-0.24-1.31-0.72c-0.04-0.11,0.47,0.05,0.2-0.26c-0.32,0.14-1,0.1-1.68-0.22
							c0.48,0.3,1.1,0.75,1.08,1c-0.25,0.5-1.09-0.51-1.69-0.53c0.49,0.5-0.3,0.39,0.92,1.23c-0.1,0.13-0.69-0.23-1.05-0.4
							c0.37,0.6-0.59,1.23,0.9,1.82l0.13,0c0.02,0.03,0.01,0.04,0.03,0.07l0,0l0,0c0.72,1.59-1.77,1.17-1.73,2.3l-0.42-0.27
							c0.18,0.77-0.38,1.23,0.32,2.12c-0.09,0.14-0.97-0.15-1.43-0.51c0.09,0.56,0.54,0.89-0.47,0.99c-0.51-0.81-0.73-0.27-0.31-0.7
							c-0.65,0.25-1.4-0.05-0.55,1.16c-0.98-0.82-1.59-0.46-1.39-0.04l0.98,0.13c0,0.35-0.22,0.52-0.45,0.69l-1.36-0.97
							c-2.33-0.02,1.93,3.5-1.43,2.57c0.86,0.84,1.02-0.13,2.07,0.77c-0.45,0.34-2.8-0.36-2.88-0.21c-1.16,0.19,1.79,1.77,0.88,2.12
							c0.56,0.2,1.99,0.89,2.22,1.64c-0.44,0.35-2.49-0.63-2.75-1.15c0.02-0.13,0.21-0.1,0.38,0c-0.11-0.25-0.23-0.57-0.89-0.7
							l0.49,0.34c-0.66-0.06-0.95,0.61-1.72-0.01c0.31,0.62,0.78,0.61,1.19,0.5c-1.08,0.19-0.53,0.91-1.36,1.26
							c0.34,0.05,1,0.29,0.95,0.39c-1.12,0.56,0.79,0.92,0.7,1.65c-0.98-0.07-1.85-1.12-1.5-0.16c-0.74,0.09-1.44-0.64-1.79-1.01
							c0.72,1.09-1.21,0.72-1.57,0.95l-0.27-0.52c0.16,0.31,0.08,0.45,0,0.6l1.15,0.36c-0.27,0.08-0.35,0.23-0.79,0.01
							c0.6,0.53,1.83,0.75,2.6,1.58c-0.66-0.04,0.23,0.99-1.23,0.38c0.85-0.5-1.46-0.62-1.37-1.36c0.11,0.21,0.03,0.35-0.25,0.43
							c-0.17-0.05-0.28-0.17-0.34-0.26c-1.62,0.09,1.43,1.12,1.05,1.83c-0.75-0.48-1.6-0.56-1.49-0.36c0.16-0.29,1.4,0.5,1.88,1.07
							c-0.85,0.17,0.22,0.73,0.03,0.94l0.43-0.14c0.75,0.48,0.54,0.66,0.63,1.1c-0.64-0.27-0.29-0.5-0.62-0.51
							c1.23,1.02-1.85,0.14-1.13,1.09c-0.65-0.02-1.52-0.68-1.99-0.64c0.78,1.06-1.4,0.12-0.81,1.13c1.17,0.32,0.91,0.17,1.78,1.07
							l-0.31-1.34l1.29,1.35c0.15-0.29-0.39-0.94-0.13-1.03c0.75,0.71,0.49,0.55,1.46,0.82c-1.81-0.34,0.58,1.23-0.73,1.2
							l-2.69-1.22c-1.52,0.19,0.82,1.89-0.27,2.53l0.6-0.1c1.02,0.59-0.09,0.64,0.22,1.13c-0.9-0.41-1.31-0.36-1.93-0.47
							c0.68,0.27-0.35,0.67,1.43,1.51l-1.38-0.08c-0.81,0.56,2.25,1.93,1.65,2.53c-0.91-0.62-1.69-0.54-2.21-1.32
							c-0.11,0.24-0.36,0.4,0.27,0.65c-0.63-0.08,0.97,1.17,0,1.05c0.36,0.26,1.31,0.67,1.13,0.91c-0.2-0.04-0.45-0.18-0.45-0.18
							c0.45,0.18,0.46,0.67,1.57,0.82c-3.16-0.34-0.59,2.16-3.3,1.92c0.12,0.65,0.19,1.41,0.08,1.92c-0.27-0.13-0.46-0.16-0.33-0.22
							c-1.1,0.38,2.54,1.34,1.31,1.77c-1.64-0.11-0.68-0.68-1.34-0.63c-3.12-0.92,0.11,1.08-1.87,1.01l-0.14-0.19
							c-1.19,0.07,0.86,1.37,0.43,1.95c0,0-0.26-0.12-0.47-0.15c1.44,0.94,1.7,1.94,1.97,2.7c-1.16-0.55-0.56-0.48-1.84-0.72
							c0.09,0.34,2.01,0.5,2.2,1.16c-0.72-0.01-1.42,0.23-2.76-0.09l0.08-0.56c-1.79-0.21-0.14,0.72-0.52,0.92l-0.74-0.24
							c0.01,0.91,1.91,1.43,1.54,2.28l0.6,0.06c1.76,0.97-1.17,0.13,0.11,0.97l-1.95-0.33c0.38,0.44,1.58,1.59,1.81,2.24
							c-1.35-0.65-1.92-1.51-2.66-2.15c-0.09,0.32-0.12,1.14,0.79,1.53c-0.15-0.17-0.59-0.45-0.26-0.51
							c1.42,0.76,2.04,1.43,1.86,2.06c-3.71-0.93-1.29,1.46-4.3,1.36c1.18,1.44-1.05,2.22-1.02,3.68c3.02-0.04,0.02,0.42,3.06,0.79
							c0.15,0.34,0.08,0.45-0.12,0.45c-0.65,0.23-1.31,0.47-1.94,0.72c-0.91,0.12-0.63-0.4-1.31-0.46
							c-0.32,0.69-1.32,0.13-2.19,0.52c1.1,0.04,1.52,0.45,1.06,0.81l1.47-0.41c1.5,1.18-2.66,0.58-1.16,1.78l-0.93-0.42
							c0.52,0.59-0.19,1.99,2.21,2.67c-0.36,0.07-1.2,0.14-1.41-0.11c-0.44,1.29,2.46,2.92,0.95,3.86l-0.75-0.11
							c0.21,0.24,1.4,0.42,0.64,0.72c-0.31-0.02-0.74-0.1-0.79,0.01c0.25,0.13,1.3,0.63,0.88,0.95l-0.85-0.26
							c-0.94,1.3,2.08,1.88,2.67,2.85c-2.2,0.13-2.84,1.19-3.16,1.73l-0.31,0.01c-0.1,1.57,2.1,2.37,3.19,3.55
							c-1.12,0.62-1.22,1.41-1.15,2.23c0.05,0.83,0.29,1.67-0.15,2.56c0.32-0.32,1.66-0.44,1.94-0.27
							c-0.34,0.45,1.71,0.41-0.22,0.97l0-0.12c-1.8,0.84-1.06,1.37-0.93,1.91l2.51-0.82c-1.6,1.31-0.85,2.1-0.16,2.7
							c0.7,0.62,1.48,1.06,0.13,2.22c0.74,0.01,0.93,0.4,1.69,0.36l-1.24,0.69c0.22,1.03,0.28,1.6,1.3,2.43l-0.98,0.36
							c0.36,0.66,3.85-1.62,4.25-1.21l-1.58,1.43c0.38,0.45,0.42,1.2,0.64,1.82c0.21,0.62,0.68,1.06,1.78,0.82
							c-0.23,0.2-0.7,0.6-0.9,0.52c0.18,0.23,0.32,0.88,0.66,1.21c0.35,0.31,0.88,0.27,1.78-0.87c-1.26,1.4,0.81,0.98,1.79,0.7
							l-0.95,1.02c1.54-1.06,1.85-1.44,2.7-1.42c0.02,0.24-0.55,0.98-0.51,0.56c0.02,0.93,1.12-0.8,1.23,0.19l-0.71,0.58
							c0.41,0.42,0.66-0.01,1.49-0.7c0.59-0.28,0.69,0.86,0.12,1.99c0.47-0.62,1.24-1.32,1.35-0.86c-0.2,0.43-0.45,0.63-0.58,0.73
							c0.39,1.29,2-0.76,1.94,0.76c-0.19,0.42-0.26,0.65-0.27,0.8c-0.66-0.39-1.17-0.75-1.07-0.82c-0.62,1.12-0.14,1.64-1.45,2.95
							c0.96-0.58,2.66-2.05,2.95-1.28c-0.03,0.13-0.05,0.25-0.11,0.44l-0.12,0.1c0.08,0.18,0.24,0.12,0.44-0.03
							c0.09,0.27,0.15,0.47,0.31,0.56c-0.36,1,0.45,0.84,0.73,0.99c0.5-1.31,0.79-0.96,0.87-2.17c0.01,0.11-0.12,0.14-0.33,0.12
							c-0.06,0.02-0.12,0.02-0.18,0.08c0.02-0.03,0.04-0.07,0.07-0.11c-0.2-0.04-0.45-0.12-0.73-0.23c0.51-0.55,0.96-1.01,0.97-0.15
							c0.48-0.75,0.98-1.55,1.23-1.95c-0.37,1.95,0.02,3.23-0.27,4.41c1.15-0.38,2.32,0.19,3.57-2.17c0.33-0.26,0.07,0.81,0.06,1.24
							c-0.21,0.21-0.37,0.12-0.55,0.47c0.68-0.49,1.56,0.14,2.11-1.63c0.42,0.95-0.75,1.57,0.18,1.48l-0.24,0.52
							c0.53,1.65,1.52,0.66,2.41-0.29c0.91-0.95,1.72-1.74,2.39,0.23c-0.1-0.25-0.15-0.36-0.13-0.67c0.94,0.94,2.1,0.73,3.2,0.51
							c1.11-0.2,2.16-0.25,3.17,1.07c0.58,0.55,0.68-0.63,1.05-1.52l0.11,1.51l0.63-1.73c0.83-1.27,1.54,3.68,2.61,1.25l-0.17-1.01
							c0.4,0.18,1.21-0.62,1.2,0.54c0.03-0.19,0.08-1.07,0.26-0.54l0.05,0.79l0.89-1.41c0.78,0.52,0.06,3.14,1.19,3.22
							c0.4-0.33,1-2.37,0.8-2.88c-0.17-0.03-0.45-0.47-0.52-1.25l0.33-0.43c-0.11-2.33-0.06-4.72-1.01-6.29l-0.48,1.46l-0.26-1.12
							l0.48-0.1c-0.35-1.04-0.45-0.09-0.61,0.56c-0.08-0.6-0.19-1.01-0.31-1.23l-0.44,2.25c-0.11-0.91,0.16-1.82-0.24-2.3
							c-0.21,1.05,0.36,2.02-0.05,2.73c-0.33-1.04-0.28-1.9-0.57-0.98c-0.07-0.6-0.02-0.98,0.1-1.25c-0.25,0.73-0.74,0.32-0.85,1.56
							c-0.32-1.3-0.97,0.36-0.98-1.84c-0.08,0.53-0.47,1.74-0.74,1.84c0.46-2.64-0.98-0.14-0.84-2.98
							c-0.36,2.36-1.25,1.03-1.91,2.33c0.04-0.19,0.12-0.57,0.17-0.45c-0.34-0.21-0.41-0.91-0.61-1.38
							c-0.13,1.95-0.69,2.36-1.07,3.55c-0.31-1.91,0.4-2.28,0.38-4.1c-0.07,1.59-0.82,1.53-0.78,2.86
							c-0.24-1.19-0.24-0.58-0.28-2.22c-0.25,2.44-0.33,0.4-0.73,1.88c-0.35-1.25,0.1-2.3-0.47-1.61
							C77.19,111.99,77.7,111.18,77.7,111.18z M65.53,112.37c0.01-0.01,0.01-0.02,0.01-0.03c0.11,0.01,0.2,0.02,0.26,0.03
							C65.75,112.37,65.67,112.37,65.53,112.37z M64.64,111.95c0.08,0.11,0.21,0.19,0.35,0.25c-0.19,0.45-0.44,0.88-0.52,0.81
							C64.66,112.75,64.58,112.39,64.64,111.95z M62.74,121.82c-0.27,0.1-0.23-0.19-0.14-0.46c0.1,0.02,0.23,0.02,0.4,0
							c0.03-0.04,0.06-0.1,0.09-0.15C62.97,121.44,62.85,121.66,62.74,121.82z"/>
						<path class="st0" d="M63.79,120.27c0.04-0.02,0.08-0.06,0.12-0.06c0.01-0.13,0.01-0.24,0.01-0.34
							c-0.08,0.13-0.16,0.26-0.23,0.38C63.72,120.25,63.76,120.26,63.79,120.27z"/>
						<path class="st0" d="M68.97,24.22l-0.04,0c0.06,0.01,0.11,0.03,0.19,0.07C69.06,24.26,69.03,24.24,68.97,24.22z"/>
						<polygon class="st0" points="57.72,101.45 57.41,101.62 57.72,101.54 						"/>
						<path class="st0" d="M76.48,21.85c0.11,0.06,0.22,0.12,0.34,0.15C76.74,21.94,76.62,21.89,76.48,21.85z"/>
						<path class="st0" d="M78.3,19.92l0.62,0.01C78.6,19.88,78.42,19.89,78.3,19.92z"/>
						<path class="st0" d="M80.08,18.75c-0.18-0.17-0.32-0.29-0.45-0.4l-0.01,0L80.08,18.75z"/>
						<path class="st0" d="M64.82,46.78c0,0.03,0,0.06,0.02,0.1C65.01,47.16,64.97,47,64.82,46.78z"/>
						<path class="st0" d="M66.29,36.77c0.17,0.21,0.34,0.42,0.43,0.59C66.89,37.26,66.98,37.16,66.29,36.77z"/>
						<path class="st0" d="M62.19,57.07c-0.01,0-0.01,0-0.02-0.01c0,0.02-0.02,0.04-0.02,0.06L62.19,57.07z"/>
						<path class="st0" d="M66.48,37.74c0.33-0.02,0.34-0.17,0.24-0.38C66.57,37.44,66.36,37.52,66.48,37.74z"/>
						<path class="st0" d="M86.17,12.64l0.11-0.03c-0.07-0.06-0.12-0.12-0.16-0.16L86.17,12.64z"/>
						<path class="st0" d="M86.12,12.45l-0.05-0.19C86.04,12.29,86.02,12.33,86.12,12.45z"/>
						<path class="st0" d="M85.97,11.85l0.1,0.41C86.12,12.2,86.22,12.16,85.97,11.85z"/>
						<path class="st0" d="M83.92,14.13l0.36,0.36C84.22,14.41,84.1,14.29,83.92,14.13z"/>
						<path class="st0" d="M83.5,14.82c0.21-0.07,1.13,0.36,1.07-0.04l-0.29-0.29C84.77,15.08,82.98,14.12,83.5,14.82z"/>
						<path class="st0" d="M76.47,13.41l0.77-0.29c-0.5-0.25-1.17-0.58-1.06-0.92C74.35,11.87,77.23,12.82,76.47,13.41z"/>
						<path class="st0" d="M74.47,14.65c0.04-0.46-0.62-0.48-0.85-0.69C73.85,14.46,73.91,14.58,74.47,14.65z"/>
						<path class="st0" d="M65.36,27.81l-1.07-0.7C64.29,27.45,64.71,27.36,65.36,27.81z"/>
						<polygon class="st0" points="69.48,33.78 70.3,33.94 69.36,33.23 						"/>
						<polygon class="st0" points="60.71,30.73 60.62,30.53 60.77,31.19 						"/>
						<path class="st0" d="M49.58,55.54l1.51,0.46C50.89,55.71,49.24,55.06,49.58,55.54z"/>
						<path class="st0" d="M47.58,67.24c-0.79-0.08-1.37,0.12-0.67,0.51C47.08,67.52,47.75,67.42,47.58,67.24z"/>
						<path class="st0" d="M44.98,103.91l-0.59-0.07c0.19,0.11,0.39,0.22,0.6,0.33L44.98,103.91z"/>
					</g>
				</g>
			</g>
		</g>
	</g>
	<g id="Q_2_">
		<g>
			<g>
				<g>
					<path class="st1" d="M133.65,137.14c0.4-0.23,0.94-1.04,0.48-1.18l-1.29,1.07L133.65,137.14z"/>
					<path class="st1" d="M133.23,132.83c-0.91,0.28-2.25,0.95-2.93,2.33c1.39-0.87,1.07-0.28,2.69-1.36
						c0.47,0.14,0.28,0.91-0.16,1.33c0.39-0.22,0.31,0.73,1.15,0.09c0.35-1.36-0.2-1.87-1.46-1.56
						C132.62,133.27,133.01,133.04,133.23,132.83z"/>
					<path class="st1" d="M135.5,95.83l-0.26,0.2C135.35,95.99,135.44,95.92,135.5,95.83z"/>
					<path class="st1" d="M147.03,70.93c-0.06,0.21,0.02,0.34,0.12,0.39C147.15,71.1,147.15,70.93,147.03,70.93z"/>
					<path class="st1" d="M149.99,66.97c-0.07,0.08-0.12,0.16-0.17,0.24C149.96,67.14,150.05,67.06,149.99,66.97z"/>
					<path class="st1" d="M135.5,95.83l0.67-0.5C135.8,95.11,135.73,95.54,135.5,95.83z"/>
					<path class="st1" d="M126.1,131.92c0.16,0.04,0.36,0.01,0.57-0.07c-0.14-0.03-0.27-0.06-0.39-0.11
						C126.22,131.8,126.17,131.85,126.1,131.92z"/>
					<path class="st1" d="M131.81,107.36l-0.08,0.2c0.12,0.12,0.28,0.25,0.46,0.39L131.81,107.36z"/>
					<path class="st1" d="M128.73,115.96c0.12-0.17-1.01-0.68-1.49-0.95c0.44,0.29,0.61,0.52,0.64,0.72
						C128.1,115.83,128.37,115.9,128.73,115.96z"/>
					<path class="st1" d="M127.92,126.41l0.32,0.02C128.15,126.43,128.03,126.4,127.92,126.41z"/>
					<path class="st1" d="M134.59,101.37c0.16,0.05,0.32,0.09,0.41,0.09C134.87,101.4,134.73,101.37,134.59,101.37z"/>
					<path class="st1" d="M102.26,119.59c-0.01,0.05-0.01,0.08-0.02,0.12C102.3,119.65,102.32,119.6,102.26,119.59z"/>
					<path class="st1" d="M112.33,121.07l-0.12,0.1c0.05,0.12,0.1,0.24,0.16,0.36L112.33,121.07z"/>
					<path class="st1" d="M153.94,58.93c-0.02,0.01-0.02,0.02-0.03,0.03C153.96,59.22,153.97,59.09,153.94,58.93z"/>
					<path class="st1" d="M111.58,3.57c0.94,0.66-1.45,0.95-0.05,1.68C111.39,4.95,112.74,3.98,111.58,3.57z"/>
					<path class="st1" d="M126.03,131.63c-0.11-0.07-0.21-0.14-0.3-0.24C125.84,131.54,125.93,131.61,126.03,131.63z"/>
					<path class="st1" d="M111.53,5.25L111.53,5.25l0.14,0.07C111.61,5.29,111.58,5.27,111.53,5.25z"/>
					<path class="st1" d="M156.41,38.15c-0.16,0.05-0.28,0.13-0.39,0.22C156.11,38.36,156.23,38.31,156.41,38.15z"/>
					<path class="st1" d="M153.35,53.35l0.21-0.34C153.44,53.14,153.39,53.25,153.35,53.35z"/>
					<path class="st1" d="M154.29,30.09c0.04-0.22,0.12-0.32-0.06-0.58c-0.04,0.04-0.06,0.07-0.08,0.11
						C154.28,29.7,154.39,29.82,154.29,30.09z"/>
					<path class="st1" d="M151.43,21.98c-0.04,0.07-0.06,0.15-0.09,0.22c0.05,0.07,0.11,0.15,0.16,0.23L151.43,21.98z"/>
					<path class="st1" d="M97.48,102.96c-0.19,0.17-0.4,0.28-0.61,0.37C97.35,103.2,97.53,104.37,97.48,102.96z"/>
					<path class="st1" d="M126.58,131.33c-0.25,0.23-0.41,0.32-0.55,0.29c0.08,0.05,0.16,0.08,0.25,0.12
						C126.42,131.6,126.54,131.46,126.58,131.33z"/>
					<path class="st1" d="M147.35,31.22l-0.13-1.09C147.21,30.45,147.26,30.84,147.35,31.22z"/>
					<path class="st1" d="M97.1,45.98l0.09,0.29C97.2,46.16,97.18,46.05,97.1,45.98z"/>
					<path class="st1" d="M146.18,27.1c0.23-0.3,0.33-0.56,0.34-0.79c-0.08-0.01-0.15-0.04-0.26-0.03
						C146.26,26.55,146.23,26.82,146.18,27.1z"/>
					<path class="st1" d="M96.86,103.33L96.86,103.33L96.86,103.33z"/>
					<path class="st1" d="M98.54,111.64c0.01-1.2-0.88-0.56-1.39-0.82c-0.26-1.43,0.65-0.67,1.11-1.16
						c-0.24-0.9-1.07-1.58-1.04-2.25c0.15-0.05,0.2-0.18,0.38-0.03c-0.72-0.95-0.05-2.81-0.95-3.91c0.08-0.08,0.15-0.12,0.22-0.14
						c-0.45,0.18-0.9,0.21-1.22,0.17c-0.02-0.54-0.57-1,0.01-1.2c-0.01,0.33,0.22,0.36,0.4,0.51l-0.26-0.56
						c0.83-0.51,0.3,0.77,0.92,0.77c-0.28-1.1-0.98-2.38-0.75-3.23c0.82-0.18,0.29,1.97,1.01,0.85l-0.3,1.31
						c1.29-1-0.08,0.79,1.29-0.13c0.23-1.72-0.43-1.92-0.2-3.64c-0.46-0.39-0.67,0.13-1.13-0.26c-0.84-2.43,2.05-1.92,0.94-3.71
						c-0.55-0.46-1.59-0.64-1.05-1.92l0.93,0.43c0.08-1.66-1.34-0.95-0.73-2.69c0.37,0.31,0.32,1.31,0.42,1.06
						c0.72-1.13-0.53-0.8-0.54-1.67l0.82-0.18c-0.14-1.77-0.74-3.72-0.91-5.68c0.25,0.11,0.51,0.44,0.75-0.02
						c-0.43-2.47,0.07-5.28,0.55-7.67l-0.72-0.91c0.01-0.21,0.32-0.39,0.46-0.16c0.27-0.93-0.45-0.05-0.74-0.49
						c-0.05-0.53,0.41-0.7,0.62-0.36c-0.61-1.64-1.33-4.67-0.57-6.4l0.22,0.34c0.29-1.35-1.48-1.52-0.82-2.77l0.13,0.24
						c0.3-2.92-0.38-6.15,0.71-8.38c-1.05-0.42,0.46-2.89-1.01-3.08c0.72-1.67,0.98-1.19,1.47-3.54c0.07-0.63-0.92-0.93-1.08-1.71
						l0.77-0.02l-0.81-1.05L97.38,47l-0.2-0.73c-0.05,0.29-0.35,0.62-0.57,0.57c-0.36-1.14,0.53-2.77,0.93-2.8l-0.67-2.69
						c0.31,0.06,0.42,0.51,0.62,0.86c-0.8-1.43,0.82-0.26,0.09-1.58c-0.18,0.18-0.47-0.09-0.62-0.12c0.47-0.66,0.47-2.15,0.27-3.25
						l0.54,0.21c0.14-2-0.27-4.21-0.26-6.45c-0.25,0.8-1.2,0.62-1.29-0.04l0.84-0.26c-0.52-0.42-0.31,0.69-0.95-0.18
						c0.09-0.84,0.95-0.56,1.23-0.08l-0.29-1.02c0.25-0.06,0.38,0.18,0.7,0.24c-0.52-0.42,0.85-1.76-0.06-2.36l0.25-0.06
						c0.01-2.24-0.28-3.25-0.33-5.08c-0.74-0.03-0.57-0.75-1.17-1.29c0.23-1.34,0.81-2.83,0.75-4.44c-0.37-1.13-0.63-0.33-1.07-0.84
						c0.68-0.08,0.61-1.7,1.1-0.86c-0.03-0.48-0.05-0.88-0.08-1.24c-0.01-0.09-0.01-0.18-0.02-0.26l-0.01-0.1
						c-0.02-0.07-0.02-0.14-0.03-0.22c-0.03-0.31-0.11-0.67,0.02-1.32c-0.31-0.07-0.51,0.03-0.66-0.18c0.07-0.32,0.61-0.3,0.81-0.04
						l0.02,0.09c0.03-0.42,0.38-0.68,0.76-0.69c0.09-0.01,0.19,0.01,0.28,0.02c0.12,0.03,0.11,0.06,0.36,0.08
						c0.39,0.06,0.78,0.11,1.16,0.17c1.54,0.24,2.97,0.43,3.93-0.39l-0.11,0.08l2.11-0.99c1.02,0.01-0.55,0.59,0.24,0.94
						c1.12-0.7,2.07-0.7,2.96-0.68c0.89,0.02,1.72,0.13,2.68-0.28c0.79,1.04,2.1,0.94,3.48,0.86c0.69-0.05,1.4-0.13,2.06-0.1
						c0.65,0.06,1.26,0.21,1.73,0.59l-0.08-0.51c0.55-0.46,0.6,0.33,0.97,0.47c-0.02-0.39-0.52-0.49-0.18-0.74
						c4.44-0.26,8.87,1.94,12.47,3.94c0.67,0.35,1.12-0.19,1.59-0.59c0.46-0.4,0.95-0.64,1.55,0.39l-0.91,0.63
						c0.79,0.1,1.59,0.28,2.28,0.63c0.68,0.37,1.37,0.75,1.98,1.22c0.59,0.49,1.23,0.93,1.81,1.4c0.57,0.49,1.24,0.86,1.91,1.24
						c-0.29,0.03-0.49,0.23-0.69,0.03c-0.11,0.96,1.46,1.69,1.95,1.33c0.21,0.42-0.36,0.43-0.43,0.84
						c-0.01,0.74,1.66,0.69,1.24,1.38c-0.07,0.11-0.29-0.01-0.4-0.07c0.53,0.12,0.84,1.63,1.4,0.86c0.24,1.11,1.28,1.74,1.21,2.74
						c1.14,0.18,0.19,1.96,1.56,1.69c-1.31,0.36-0.58,2.22,0.24,2.79c-0.48-0.14-0.29,0.7-0.94,0.55c0.14,0.79,0.51,1.49,1.22,1.23
						c-0.37,0.45-0.44,0.84-0.37,1.2c0.06,0.37,0.23,0.72,0.4,1.05c0.33,0.66,0.61,1.28-0.48,1.76c0.38,1.23,0.75,2.44,0.95,3.65
						c0.16,1.22,0.38,2.41,0.37,3.6c-1.42-0.24,0.09-2.59-1.47-2.59c0.11,0.55,0.27,1.04,0.44,1.52c0.15,0.47,0.29,0.93,0.41,1.38
						c0.22,0.9,0.38,1.81-0.01,2.88c-0.31,0.53-0.58-0.43-0.8-0.65c0.09,1.14-0.15,2.19-0.36,3.21c-0.22,1.02-0.49,2.01-0.31,3.08
						c-0.14-0.04-0.24-0.29-0.3-0.51c-0.05,0.39-0.44,0.83,0.25,0.96l-0.09-0.42c1.13-0.38,1.69,2.06,2.16,2.28
						c-1.75-1.18-1.06,1.81-3.21,0.09c0.05,0.28,0.28,0.69,0.75,0.76c-0.24,0.34-0.54,0.37-0.95-0.15c-0.04,1.46,0.83,1.2,0.44,2.43
						c-0.32-0.11-0.38-0.4-0.73-0.64c0.45,0.82,0.86,1.65,0.23,2.6c-0.18-0.13-0.48-0.09-0.36-0.4c-0.26,0.9-0.1,1.81-0.03,2.72
						c0.04,0.9-0.03,1.8-0.72,2.65c-1.21-1.12-0.73,0.48-2.01,0.1l-0.04,1.18l0.77-0.18c-0.37,0.9,0.16,2.06-0.58,2.68l-0.22-0.88
						l-0.5,1.79l0.89-0.76c0.24,1.19,1.62,0.57,0.75,1.64c-0.02-0.3-0.41,0.91-1.34,1.06l0,0c0.2,0.63,0.4,1.28-0.21,1.82
						c-0.48,0-1.32-0.76-1.64-0.76c0.85,0.91-0.68,2.26,0.19,3.33c-0.18-0.31-0.84-0.61-1.01-0.61l0.69,0.76
						c-0.47,0.3-0.63,0.3-1.13,0c-0.74,1.2,1.8,0.31,0.42,1.51c-0.02-0.15-0.17-0.15-0.19-0.46c-1.05,1.35-0.77,3.17-1.83,4.37
						c-1.49-0.17,0.23-1.36-1.08-1.38c-0.69,2.1-0.32,4.85-1.51,6.65l0.31-0.3c1.77,1.11-1.59,1.03-1.14,2.41
						c-0.03-0.3-0.91-0.78-0.73-0.63c-0.91,1.19-0.78,2.92-1.08,5.21l-0.39-0.47c-0.8,0.59-1.2,1.95-1.81,2.7
						c0.39,0.47,0.09,0.92,0.96,0.95c-4.1,1.33-0.66,5.68-4.15,6.95c0.12-0.28-0.16-0.86-0.27-0.64l-0.39,2.2
						c0.97,0.22,0.66-0.03,1.54-0.15c0.42,0.48,0.6,1.22,0.39,1.71c-0.22-1.15-1.45-0.61-2.13-0.43c0.31,0.05,0.56,0.31,0.85,0.4
						c-2.07,0.37,1.75,0.94,0.07,1.91l-0.45-0.27c0.02,0.64,0.46,1.39,0.09,1.91c-1.17-0.19-0.27-0.77-1.13-1.17
						c-0.28,0.85,1.38,2.42,0.01,2.74c-0.17-0.47,0.03-0.97-0.13-1.43c-1.6,0.3-1.31,0.53-1.76,1.05l0.05-0.05l-1.14,1.17l0.49-0.22
						c2.46,2.12-0.3,2.3,1.08,4.39c-1.3-2.01-0.96-0.61-2.19-1.18c-0.49,0.23-1.09,0.62-1.39,0.34c0.39,0.52,0.08,0.72-0.18,0.97
						c-0.29,0.29-0.6,0.93-0.04,1.76c-0.46-0.03-0.35,1.04-1.39,0.68c0,1.41,0.85-0.25,1.38-0.03c0.48,1.04-0.2,2.01-0.57,3.36
						c-0.19,0.66-0.25,1.38-0.07,2.06c0.19,0.67,0.67,1.28,1.5,1.58c0.51,0.37,1.09,0.5,1.59,0.59c0.5,0.09,0.97,0.09,1.41,0.07
						c0.9-0.03,1.64-0.16,2.5,0.04c-0.05,0.91-1.4,1.01-1.4,1.01c0.25,1.08,0.83,1.41,1.8,1.53c-0.39,0.21-0.47,0.58-0.61,1.15
						c0.58,0.33,1.41-1.03,1.65,0.06c-0.45,0.31-1.12,0.83-1.69,1.03c0.87,0.17,2.01-0.01,2.9,0.18c-0.36,0.77-1.16,0.65-1.72,0.88
						c0.93,0.3,2.27,0.94,3.32,0.11l-0.15-0.73c0.29,0.16-0.58,0.98-0.92,1.01c-1.24,0.29-0.57-1.07-0.31-1.47l0.63,0.13
						c1.29-2.52-2.07-1.13-2.85-2l1.63-1.23l-1.96,0.52c0.13-0.56,0.69-1.52,1.32-1.39c-0.03-1.28-1.01,0.08-0.88-1.21
						c0.05-0.18,0.13-0.23,0.24-0.25l-1-0.06c0.38-0.22,0.77-1.16,0.98-0.62c-0.28-0.94-0.72-0.85-1.27-0.88
						c-0.51-0.01-1.02-0.05-0.54-0.62l0.17-0.02c-0.44-0.13-0.76-0.17-0.98-0.17c-0.24,0.01-0.45,0.11-0.67,0.23
						c-0.23,0.13-0.47,0.29-0.81,0.39c-0.31,0.08-0.73,0.1-1.27-0.12c0.86-0.8,2.06-1.57,3.2-2.14c-0.49,0.1-0.98,0.18-1.48,0.26
						c0.03-0.2,0.14-0.57,0.73-0.62c-0.98-0.46-0.65,0.24-1.58,0c0.69-0.58,0.65-1.14,0.76-1.68c0.11-0.53,0.36-0.97,1.45-0.78
						c-0.91-0.56-1.07,0.64-1.46-0.46c1.19,0.14,1.16-0.06,1.04-0.5c-0.11-0.45-0.35-1.03,0.31-1.27c1.03,0.68,0.15,1.27,1.46,0.78
						c-1.73-1.22,1.02-1.52,0.91-2.37c-1.49-0.6-0.05-1.8-0.08-3.19c0.46,0.27,1.68-1.94,2.65-2.83l0.23,0.13
						c-1.37-0.82-0.63-1.85-0.58-2.81c0.84,0.4,1.12,0.69,1.32,1.3l0.31-0.78c-0.39-0.38-0.53-0.73-0.48-1.3l0.98,0.65
						c0.36-1.07-0.38-2.63,0.89-3.67c-0.94-0.5-3.18-0.12-3.22-1.82c0.55,0.18,1.47,0.52,1.53,0.98c-0.02-0.15-0.25-0.62,0.08-0.77
						l0.64,0.95c0.65-0.44-0.6-0.64-0.31-1.09c0.74,0.34,0.69-0.13,1.25,0.2c0.02,0.16-0.49,0.29-0.28,0.61
						c0.37-0.49,1.1-0.96,1.75-0.94c-0.44-0.14-1-0.44-0.93-0.88c0.39-1.06,1.04,0.04,1.68-0.4c-0.41-0.48,0.41-0.91-0.69-1.41
						c0.14-0.3,0.67-0.13,1.02-0.12c-0.25-0.75,0.94-2.58-0.48-2.48l-0.14,0.1c-0.01-0.04,0-0.07-0.01-0.11l0,0l0,0
						c-0.3-2.24,2.21-3.39,2.51-5.35l0.35,0.16c0.05-1.23,0.77-2.43,0.35-3.51c0.14-0.31,0.96-0.44,1.32-0.13
						c0.08-0.92-0.26-1.18,0.81-2.08c0.26,1.07,0.66-0.04,0.09,1.02c0.75-0.91,1.4-0.9,0.94-2.43c0.72,0.77,1.45-0.29,1.4-0.9
						l-0.94,0.45c0.11-0.61,0.4-1.06,0.69-1.52l1.03,0.78c2.29-1.52-0.7-4.89,2.3-5.48c-0.54-0.91-1.05,0.91-1.76,0
						c0.58-0.91,2.63-1.21,2.76-1.52c1.19-1.07-1.09-1.97-0.07-3.22c-0.47,0.01-1.6-0.28-1.53-1.5c0.56-0.92,2.17-0.52,2.22,0.24
						c-0.07,0.26-0.24,0.32-0.37,0.25c0.01,0.38,0,0.89,0.6,0.67l-0.34-0.3c0.61-0.33,1.14-1.74,1.65-1.14
						c-0.06-0.92-0.51-0.59-0.95-0.11c1.11-1.05,0.84-2.02,1.71-3.23c-0.3,0.13-0.83,0.15-0.75-0.06c1.22-1.8-0.43-1.16-0.1-2.55
						c0.88-0.54,1.34,0.8,1.32-0.74c0.68-0.7,1.1,0.19,1.31,0.64c-0.35-1.53,1.26-2.2,1.63-2.89l0.1,0.78
						c-0.06-0.47,0.05-0.79,0.16-1.13l-0.91,0.13c0.26-0.35,0.37-0.68,0.7-0.57c-0.39-0.57-1.41-0.11-1.85-1.12
						c0.55-0.4,0.02-1.72,1.11-1.59c-0.81,1.56,1.1,0.12,0.88,1.59c-0.05-0.31,0.05-0.64,0.29-1.01c0.13-0.03,0.2,0.12,0.23,0.25
						c1.37-1.35-0.98-1.09-0.5-2.73c0.53,0.37,1.22-0.09,1.17-0.39c-0.2,0.67-1.05,0.06-1.36-0.67c0.7-0.96-0.08-1.25,0.1-1.79
						l-0.36,0.58c-0.54-0.36-0.34-0.87-0.35-1.64c0.47,0.04,0.16,0.74,0.42,0.52c-0.84-1.04,1.5-1.62,0.99-2.95
						c0.49-0.47,1.11,0.16,1.46-0.28c-0.55-1.47,1.08-1.3,0.61-2.84c-0.83,0.3-0.65,0.39-1.3-0.7c0.1,0.79,0.19,1.59,0.23,2.38
						c-0.3-0.55-0.58-1.09-0.92-1.64c-0.08,0.69,0.26,1.52,0.06,1.91c-0.52-0.8-0.34-0.69-1.05-0.48c1.36-0.73-0.4-1.93,0.52-2.89
						l1.94,0.27c0.52-0.78,0.38-1.56,0.13-2.39c-0.25-0.84-0.55-1.72-0.25-2.8l-0.37,0.68c-0.75-0.32-0.02-1.33-0.36-2.05
						c0.64,0.07,0.87-0.37,1.26-0.68c-0.47,0.04,0.01-1.63-1.26-1.77c0.28-0.33,0.51-0.67,0.76-1.02c0.15-1.83-1.91-1.86-2-3.51
						c0.76,0.4,1.07-0.44,1.75,0.64c-0.09-0.57-0.07-1.11-0.5-1.05c0.32-0.41-1.07-1.42-0.63-2.04c-0.33-0.18-0.99-0.11-1.09-0.73
						c0.11-0.1,0.3-0.07,0.3-0.07c-0.3,0.07-0.65-0.85-1.18-0.15c0.36-0.53,0.48-1.1,0.4-1.66c-0.09-0.56-0.32-1.12-0.55-1.67
						c-0.11-0.27-0.23-0.55-0.34-0.81c-0.12-0.26-0.24-0.52-0.32-0.77c-0.17-0.51-0.21-1.02-0.01-1.56
						c-0.34-0.54-0.81-1.07-1.23-1.62c-0.43-0.53-0.77-1.09-1.16-1.52c0.19-0.04,0.25-0.17,0.33,0.04c-0.5-1.6-1.96,0.24-2.52-1.5
						c0.07-0.64,0.33-0.56,0.56-0.39c0.23,0.17,0.39,0.45,0.37,0.1c0.71-0.73,0.26-1.1-0.32-1.48c-0.6-0.37-1.28-0.79-1.35-1.6
						l0.3,0.12c-0.12-0.55-0.69-0.81-1.34-1.05c-0.33-0.12-0.67-0.24-1-0.39c-0.35-0.13-0.68-0.3-0.96-0.55c0,0,0.16-0.09,0.19-0.23
						c-0.73,0.1-1.49-0.1-2.28-0.31c-0.79-0.2-1.57-0.49-2.23-0.73c0.74-0.44,0.75-0.02,0.89-0.83c-0.61-0.22-0.44,1.13-1.63,0.75
						c-0.16-0.54-0.81-1.26-0.57-2.05l1.11,0.49c-0.08-1.22-1.44-0.66-1.92-1.1l0.26-0.38c-1.81-0.54-2.23,0.47-4.04-0.22l0.08,0.39
						c-1.35,0.77-0.65-0.87-1.9-0.38l0.01-1.2c-0.77,0.08-2.66,0.48-3.89,0.43c0.85-0.7,2.38-0.76,3.41-1.04
						c-0.69-0.17-2.36-0.46-2.83,0c0.29-0.04,0.7-0.24,0.93,0c-1.03,0.65-2.19,0.92-3.52,0.67c0.3-1.05-0.57-1.38-1.61-1.55
						c-1.04-0.19-2.24-0.35-2.67-1.22c-1.26,0.34-2.46,0.17-3.72-0.04c-1.25-0.17-2.58-0.46-4-0.35c1.03,1.62-0.83,0.08-0.61,1.78
						c-0.65,0.13-0.89,0.11-0.96,0.01c-0.67-0.31-1.35-0.64-2.03-0.92c-0.5-0.45,0.6-0.42,0.52-0.79c-1.45-0.03-0.65-0.67-1.64-1.04
						c0.24,0.59-0.44,0.9-1.29,0.74l1.22,0.68c-1.93,1.07-1.87-1.3-3.81-0.16l0.59-0.6c-1,0.44-3.86,0.44-4.66,1.96
						c-0.21-0.16-0.51-0.57-0.08-0.76c-0.62,0.05-1.26,0.21-1.9,0.43C98.14,4.88,97.83,5,97.5,5.12c-0.53,0.17-1.03,0.38-1.48,0.65
						c-1.87,1.07-2.89,2.57-3.91,3.63c-0.08-0.15-0.15-0.3-0.21-0.45c-0.26,0.72,0.11,1.4-0.5,2.1c-0.15-0.08-0.3-0.39-0.42-0.07
						c0.02,0.21,0.07,0.71,0.14,1.25c0.02,0.27,0.07,0.56,0.08,0.83l0,0.2l0,0.13c-0.01,0.08-0.02,0.16-0.05,0.24
						c-0.15-0.2-0.31-0.27-0.45-0.6c-0.03,0.18-0.05,0.35-0.08,0.52c-0.01,0.14-0.02,0.27-0.02,0.41c0,0.26,0.02,0.51,0.07,0.75
						c0.09,0.48,0.25,0.92,0.44,1.35c0.38,0.86,0.86,1.66,1,2.65c-1.16,0-1.51,1.85-1.69,2.78l-0.16-0.03
						c-0.1,2.74,1.02,4.66,1.49,7.2c-1.21,1.58-0.45,5.34-1.11,7.88c0.2-0.39,0.88,0.06,0.99,0.51c-0.22,0.6,0.79,1.64-0.23,1.55
						l0.02-0.21c-1,0.45-0.72,1.67-0.73,2.63l1.34,0.15c-1.91,2.5,0.78,6.54-0.93,7.9c0.34,0.6,0.34,1.35,0.68,1.94l-0.71-0.03
						c-0.16,1.67-0.24,2.5-0.05,4.56l-0.51-0.42c-0.03,1.16,2.04,1.46,2.09,2.54l-1.04,0.33c0.04,2.03-0.86,4.09,0.11,6.09
						c-0.15-0.03-0.45-0.09-0.5-0.42c-0.02,0.96-0.67,3.7,0.75,3.35c-0.93,0.03-0.07,2.09,0.35,3.19l-0.68-0.17
						c0.88,0.92,1.12,0.95,1.37,2.24c-0.09,0.31-0.54,0.27-0.37-0.14c-0.35,1.02,0.65,0.79,0.3,2.03l-0.44-0.46
						c-0.04,1.05,0.19,0.97,0.7,1.54c0.28,0.66-0.16,1.99-0.77,2.15c0.37,0.14,0.88,0.71,0.71,1.33c-0.23,0.08-0.38-0.14-0.45-0.25
						c-0.45,1.76,0.81,2.61,0.15,3.82c-0.22,0.03-0.33,0.1-0.4,0.2c0.01-1.39,0.03-2.52,0.08-2.41c-0.62,0-0.72,1.13-1.59,0.23
						c0.48,0.9,1.51,2.45,1.23,3.55c-0.06,0.05-0.12,0.11-0.21,0.15l-0.07-0.11c-0.06,0.25,0,0.48,0.11,0.69
						c-0.1,0.35-0.17,0.57-0.18,0.91c-0.51,0.13-0.27,1.29-0.29,1.85c0.68-0.05,0.58,0.69,1.13,0c-0.05,0.09-0.08-0.11-0.11-0.48
						c-0.02-0.08-0.03-0.18-0.07-0.24c0.02,0.01,0.04,0.02,0.06,0.04c-0.01-0.37-0.03-0.85-0.06-1.4c0.35,0.44,0.64,0.91,0.27,1.53
						c0.44,0.29,0.89,0.6,1.1,0.78c-0.94,0.77-1.44,2.25-2.02,2.46c0.39,1.71,0.28,4.04,1.56,5.12c0.17,0.49-0.36,0.56-0.56,0.74
						c-0.13-0.28-0.11-0.62-0.3-0.77c0.33,0.97,0.15,2.89,1.04,3.12c-0.39,1.23-0.83-0.69-0.67,1l-0.27-0.23
						c-1.4,3.32,2.31,5.4,0.51,9.08c0.11-0.26,0.16-0.38,0.31-0.44c-0.39,2.1-0.18,4.26-0.04,6.42c0.04,0.54,0.07,1.08,0.09,1.61
						c0.01,0.57,0.02,1.15,0.03,1.72c0.07,1.32,0.41,2.61,1.05,3.91c0.41,0.7,0.85,0.94,1.23,1.03c0.39,0.09,0.74-0.01,1.2,0.02
						c-0.04,0.27-0.06,0.52-0.09,0.79c0.57-0.02,1.11-0.1,1.63-0.21c0.98,0.02,1.61,0.65,2.43,1.18c0.8,0.54,1.79,0.95,3.01,0.39
						l-0.3-0.51c0.85,0.13,2.63-0.38,2.54,0.19c0.08-0.1,0.21-0.55,0.57-0.34l0.08,0.38c0.67-0.31,1.31-0.66,1.91-1.05
						c0.8-0.06,0.86,0.32,0.99,0.66c0.13,0.33,0.36,0.64,1.58,0.23c0.88-0.48,1.9-2.18,1.45-2.24c-0.33,0.15-0.92,0.2-1.11-0.14
						l0.58-0.53c-0.22-0.54-0.36-1.13-0.69-1.57c-0.33-0.44-0.82-0.74-1.64-0.78c-0.22,0.34-0.44,0.73-0.71,1.05l-0.51-0.42
						c0.27-0.11,0.56-0.2,0.81-0.34c-0.64-0.29-0.77,0.21-1.02,0.65c-0.17-0.26-0.37-0.42-0.6-0.48c-0.23,0.45-0.5,0.89-0.79,1.31
						c-0.2-0.42,0.29-0.97-0.43-1.08c-0.41,0.59,0.66,0.91-0.14,1.38c-0.62-0.45-0.49-0.87-1.07-0.38
						c-0.11-0.29,0.01-0.48,0.23-0.63c-0.25,0.2-0.61,0.26-0.93,0.35c-0.33,0.07-0.62,0.18-0.77,0.49c-0.53-0.63-1.9,0.05-1.71-1.02
						c-0.18,0.24-1.06,0.71-1.56,0.62c0.59-0.54,0.13-0.63-0.34-0.81c-0.49-0.16-0.94-0.42-0.59-1.01
						c-0.45,0.45-0.98,0.32-1.31,0.16c-0.3-0.15-0.53-0.43-0.97-0.63c0.1,0,0.3-0.02,0.28,0.06c-0.1-0.39,0.21-0.61,0.38-0.84
						c-0.47,0.09-0.8-0.01-1.06-0.22c-0.26-0.15-0.46-0.73-0.76-1.04c0.91-0.97,1.12,0.59,2,0.28c-0.77,0.05-0.78-1.69-1.42-1.35
						c0.56-0.74,0.27-0.64,1.05-1.03c-1.19-0.13-0.21-0.69-0.94-1.31c0.57-1.08,1.11-0.28,0.74-1.46
						C98.11,110.59,98.54,111.64,98.54,111.64z M96.3,83.56c0.01,0,0.01,0,0.01,0c0.02,0.24,0.03,0.45,0.04,0.58
						C96.34,84.02,96.32,83.85,96.3,83.56z M96.27,81.2c-0.02,0.29-0.03,0.65-0.02,1.02c-0.23,0.08-0.48-0.01-0.47-0.24
						C95.94,82.11,96.07,81.55,96.27,81.2z M91.59,86.2c-0.1-0.37,0.03-0.5,0.17-0.55c0.01,0.18,0.04,0.38,0.09,0.65
						c0.02,0.01,0.06,0.03,0.08,0.04C91.8,86.31,91.68,86.27,91.59,86.2z"/>
					<path class="st1" d="M92.49,86.87c0.02,0.05,0.04,0.08,0.05,0.15c0.06-0.08,0.11-0.15,0.15-0.22
						c-0.07-0.05-0.15-0.09-0.21-0.13C92.48,86.74,92.48,86.81,92.49,86.87z"/>
					<path class="st1" d="M135.2,96.06l0.04-0.04c-0.06,0.02-0.11,0.04-0.19,0.03C135.12,96.05,135.15,96.06,135.2,96.06z"/>
					<polygon class="st1" points="97.45,48.61 97.27,48.61 97.43,48.82 					"/>
					<path class="st1" d="M126.33,106.4c-0.11-0.02-0.23-0.01-0.35,0.04C126.05,106.46,126.18,106.44,126.33,106.4z"/>
					<path class="st1" d="M123.88,111.54l-0.71,0.59C123.54,111.89,123.74,111.7,123.88,111.54z"/>
					<path class="st1" d="M121.71,115.39c0.19,0.13,0.34,0.2,0.47,0.27c0,0,0,0,0.01-0.01L121.71,115.39z"/>
					<path class="st1" d="M147.07,52.16c0.01-0.05,0.01-0.11,0-0.16C146.97,51.59,146.98,51.85,147.07,52.16z"/>
					<path class="st1" d="M142.51,71.65c-0.09-0.27-0.17-0.54-0.19-0.79C142.11,71.16,141.98,71.4,142.51,71.65z"/>
					<path class="st1" d="M147.37,31.34c0.01,0,0.01,0,0.02,0l-0.03-0.12L147.37,31.34z"/>
					<path class="st1" d="M142.72,70.01c-0.33,0.25-0.41,0.54-0.39,0.85C142.51,70.62,142.74,70.34,142.72,70.01z"/>
					<path class="st1" d="M128.95,134.52l0.12,0.18c0.05-0.07,0.11-0.12,0.16-0.15L128.95,134.52z"/>
					<path class="st1" d="M129.23,134.54l0.28,0.02C129.43,134.5,129.35,134.44,129.23,134.54z"/>
					<path class="st1" d="M130.1,134.61l-0.59-0.05C129.64,134.68,129.77,134.84,130.1,134.61z"/>
					<path class="st1" d="M124.99,130.33l-0.36,0.33C124.73,130.61,124.84,130.5,124.99,130.33z"/>
					<path class="st1" d="M123.43,129.2c0.1,0.12,0.18,0.29,0.26,0.48c0.07,0.18,0.07,0.34,0.12,0.52c0.08,0.34,0.22,0.65,0.53,0.73
						l0.28-0.26c-0.33,0.19-0.39-0.24-0.47-0.67c-0.04-0.22-0.09-0.43-0.17-0.57C123.85,129.24,123.68,129.15,123.43,129.2z"/>
					<path class="st1" d="M125.76,120.49c-0.21,0.32-0.42,0.67-0.58,1.05c0.54-0.26,1.26-0.48,1.34-0.12
						c0.84-0.58,0.55-0.47,0.09-0.42C126.14,121.06,125.49,121.15,125.76,120.49z"/>
					<path class="st1" d="M127.68,117.06c-0.05,0.81,0.66,0.23,0.9,0.37C128.33,116.81,128.27,116.66,127.68,117.06z"/>
					<path class="st1" d="M140.06,87.09l0.87,0.47C141.04,86.95,140.59,87.4,140.06,87.09z"/>
					<polygon class="st1" points="137.98,79.34 137.19,79.63 137.88,80.24 					"/>
					<polygon class="st1" points="145.71,78.74 145.73,79.04 145.81,77.98 					"/>
					<path class="st1" d="M152.8,23.06l-0.81,0.58C152.34,23.97,153.4,23.63,152.8,23.06z"/>
					<path class="st1" d="M133.18,7.34c-0.11-0.52-0.7-1.01-1.25-0.7C132.45,6.86,132.87,7.37,133.18,7.34z"/>
					<polygon class="st1" points="91.05,42.35 90.78,41.87 91.01,42.77 					"/>
				</g>
			</g>
		</g>
	</g>
</g>
<g id="set_2_">
	<ellipse id="buttom" class="st2" cx="93.85" cy="142.12" rx="7.98" ry="6.8"/>
	<path id="middle" class="st3" d="M110.5,142.1H77.2c-0.42,0-0.76-0.34-0.76-0.76l0-6.12c0-0.42,0.34-0.76,0.76-0.76h33.29
		c0.42,0,0.76,0.34,0.76,0.76l0,6.12C111.26,141.76,110.92,142.1,110.5,142.1z"/>
	<path id="top" class="st4" d="M116.66,136.15H70.31c-0.42,0-0.76-0.34-0.76-0.76v-6.12c0-0.42,0.34-0.76,0.76-0.76h46.35
		c0.42,0,0.76,0.34,0.76,0.76v6.12C117.43,135.81,117.08,136.15,116.66,136.15z"/>
</g>
<g>
	<path class="st5" d="M24.22,184.18l-0.11,0.02c-1.44,0.49-2.9,0.73-4.38,0.73c-1.39,0-2.69-0.25-3.91-0.76s-2.25-1.23-3.11-2.19
		c-0.86-0.96-1.51-2.1-1.96-3.43s-0.68-2.77-0.68-4.33c0-2.55,0.47-5.06,1.4-7.52c0.93-2.46,2.18-4.65,3.76-6.57
		c1.57-1.92,3.37-3.43,5.37-4.55s4.06-1.67,6.15-1.67c1.94,0,3.65,0.46,5.13,1.36s2.64,2.2,3.46,3.88c0.83,1.68,1.24,3.61,1.24,5.8
		c0,2.43-0.47,4.87-1.41,7.33c-0.94,2.46-2.22,4.68-3.85,6.66c-1.63,1.98-3.43,3.47-5.42,4.48l0.32,0.21l0.32,0.21
		c1.24,0.81,2.31,1.45,3.23,1.91s1.74,0.8,2.48,1.01c0.73,0.21,1.5,0.33,2.29,0.38l-1.7,1.72c-0.58-0.05-1.2-0.2-1.86-0.47
		c-0.66-0.27-1.44-0.68-2.34-1.23c-0.9-0.55-1.93-1.24-3.09-2.06l-0.66-0.46L24.22,184.18z M16.59,183.19
		c0.44-0.78,0.96-1.36,1.55-1.75c0.59-0.39,1.23-0.58,1.91-0.58c1.28,0,2.83,0.6,4.63,1.79l0.16,0.09c0.02,0.02,0.03,0.03,0.06,0.04
		s0.06,0.03,0.1,0.08c1.38-0.86,2.6-1.9,3.68-3.13c1.08-1.23,1.98-2.65,2.72-4.27c0.52-1.13,0.97-2.35,1.34-3.67
		c0.37-1.31,0.67-2.65,0.88-4.01c0.21-1.36,0.32-2.61,0.32-3.76c0-1.44-0.18-2.73-0.53-3.9c-0.35-1.16-0.85-2.13-1.49-2.9
		c-0.64-0.77-1.44-1.37-2.38-1.8c-0.95-0.43-2.03-0.64-3.25-0.64c-1.27,0-2.52,0.28-3.77,0.84c-1.25,0.56-2.41,1.38-3.51,2.45
		c-1.09,1.08-2.07,2.39-2.95,3.93c-0.99,1.76-1.8,3.82-2.42,6.19c-0.62,2.37-0.93,4.57-0.93,6.6c0,1.28,0.16,2.48,0.47,3.59
		c0.31,1.11,0.76,2.07,1.34,2.9C15.11,182.09,15.79,182.73,16.59,183.19z M23.42,183.6c-1.53-1.12-2.86-1.67-3.99-1.67
		c-1.12,0-1.91,0.5-2.38,1.51c1.02,0.47,2.14,0.71,3.35,0.71C21.48,184.15,22.49,183.97,23.42,183.6z"/>
	<path class="st5" d="M41.48,171.16l-2.02,7.54c-0.34,1.24-0.5,2.23-0.5,2.98c0,0.49,0.08,0.89,0.25,1.19
		c0.17,0.31,0.39,0.46,0.66,0.46c0.47,0,1.23-0.57,2.27-1.7l0.37,0.32l-0.23,0.25c-0.87,1.02-1.51,1.71-1.93,2.07
		c-0.41,0.36-0.79,0.54-1.15,0.54c-0.47,0-0.88-0.24-1.2-0.72s-0.49-1.08-0.49-1.8c0-0.46,0.09-1.18,0.27-2.18l1.44-8.02
		L41.48,171.16z M42.14,162.17c0.4,0,0.72,0.12,0.96,0.37c0.24,0.25,0.37,0.57,0.37,0.96c0,0.38-0.13,0.7-0.39,0.96
		s-0.57,0.39-0.94,0.39c-0.35,0-0.66-0.14-0.94-0.41c-0.27-0.27-0.41-0.59-0.41-0.94c0-0.37,0.13-0.68,0.39-0.94
		S41.76,162.17,42.14,162.17z"/>
	<path class="st5" d="M56.58,171.02l-2.15,8.39c-0.23,0.92-0.34,1.64-0.34,2.15c0,0.46,0.1,0.86,0.3,1.19
		c0.2,0.34,0.44,0.5,0.73,0.5c0.44,0,1.18-0.54,2.2-1.63l0.32,0.32l-0.25,0.3c-0.81,0.93-1.43,1.58-1.87,1.96s-0.81,0.56-1.13,0.56
		c-0.49,0-0.91-0.26-1.27-0.77s-0.54-1.1-0.54-1.78c0-0.49,0.18-1.6,0.55-3.32l0.18-0.87c-0.57,1.31-1.32,2.58-2.27,3.78
		c-1.59,2.02-3.11,3.03-4.56,3.03c-0.87,0-1.56-0.31-2.06-0.94c-0.5-0.63-0.76-1.47-0.76-2.52c0-1.44,0.41-2.94,1.23-4.52
		c0.82-1.57,1.83-2.87,3.05-3.88s2.4-1.52,3.54-1.52c1.21,0,2.11,0.44,2.7,1.33l0.25-0.87L56.58,171.02z M53.95,173.95
		c-0.18-0.58-0.49-1.03-0.93-1.36c-0.44-0.33-0.94-0.49-1.5-0.49c-0.67,0-1.38,0.31-2.13,0.93c-0.75,0.62-1.44,1.48-2.06,2.58
		c-0.49,0.87-0.9,1.83-1.23,2.89c-0.33,1.05-0.49,1.93-0.49,2.61c0,0.78,0.15,1.39,0.45,1.83s0.72,0.66,1.27,0.66
		c0.7,0,1.44-0.33,2.2-0.99s1.52-1.6,2.27-2.82c0.46-0.7,0.82-1.41,1.08-2.11c0.26-0.7,0.55-1.68,0.87-2.93L53.95,173.95z"/>
	<path class="st5" d="M58.92,180.17c0-1.38,0.37-2.75,1.11-4.11c0.74-1.37,1.7-2.48,2.88-3.33s2.38-1.28,3.6-1.28
		c1.28,0,2.32,0.42,3.11,1.27c0.79,0.85,1.18,1.95,1.18,3.29c0,1.47-0.36,2.89-1.09,4.26c-0.73,1.38-1.68,2.5-2.87,3.38
		c-1.18,0.88-2.38,1.32-3.59,1.32c-1.3,0-2.35-0.44-3.14-1.32C59.32,182.76,58.92,181.6,58.92,180.17z M68.73,175.12
		c0-0.92-0.23-1.67-0.68-2.27s-1.03-0.89-1.73-0.89c-0.64,0-1.26,0.21-1.84,0.62c-0.59,0.41-1.13,1.02-1.62,1.81
		c-0.55,0.92-1,1.99-1.36,3.21s-0.54,2.31-0.54,3.25c0,1.13,0.22,2,0.67,2.61c0.44,0.61,1.08,0.92,1.9,0.92
		c1.33,0,2.5-0.92,3.51-2.77c0.52-0.95,0.93-2.01,1.24-3.19S68.73,176.15,68.73,175.12z"/>
	<path class="st5" d="M78.13,176.86l0.41-0.48l0.41-0.48c0.41-0.47,1.02-1.2,1.83-2.18l1.54-1.9l0.23-0.3h1.6l-0.23,0.25
		c-1.21,1.27-2.21,2.35-3,3.23c-1.22,1.33-2,2.19-2.34,2.57l-0.07,0.09l3.25,6.92h-2.09l-2.5-5.41l-0.07,0.09
		c-0.23,0.25-0.66,0.76-1.31,1.56l-1.4,1.7c-0.87,1.08-1.44,1.77-1.72,2.06h-1.6l0.37-0.37c1.3-1.31,2.79-2.93,4.47-4.84l0.89-1.01
		l-3-6.51l1.63-0.67L78.13,176.86z"/>
	<path class="st5" d="M88.51,171.16l-2.22,8.87c-0.2,0.79-0.3,1.47-0.3,2.02c0,0.54,0.17,0.96,0.5,1.28
		c0.34,0.32,0.77,0.48,1.31,0.48c1.3,0,2.65-1.06,4.06-3.19l0.09-0.14c0.03-0.15,0.05-0.27,0.07-0.37l1.44-8.02l2.25-0.94
		l-2.02,7.54c-0.34,1.24-0.5,2.23-0.5,2.98c0,0.49,0.08,0.89,0.25,1.19c0.17,0.31,0.39,0.46,0.66,0.46c0.47,0,1.23-0.57,2.27-1.7
		l0.37,0.32l-0.23,0.25c-0.87,1.02-1.51,1.71-1.93,2.07c-0.41,0.36-0.79,0.54-1.15,0.54c-0.47,0-0.88-0.24-1.2-0.72
		s-0.49-1.08-0.49-1.8c0-0.23,0.01-0.44,0.02-0.64c-1.59,2.11-3.16,3.16-4.72,3.16c-0.78,0-1.4-0.23-1.87-0.68
		c-0.47-0.45-0.7-1.05-0.7-1.8c0-0.58,0.08-1.29,0.25-2.13l1.56-8.11L88.51,171.16z"/>
	<path class="st5" d="M107.37,181.01l0.41,0.34c-0.95,1.25-1.87,2.16-2.77,2.72s-1.87,0.84-2.91,0.84c-1.24,0-2.23-0.41-2.98-1.24
		c-0.75-0.83-1.12-1.92-1.12-3.28c0-1.38,0.36-2.77,1.09-4.18c0.73-1.41,1.63-2.58,2.73-3.51c1.09-0.92,2.17-1.39,3.24-1.39
		c0.63,0,1.14,0.18,1.55,0.55c0.41,0.37,0.61,0.84,0.61,1.42c0,1.18-0.64,2.35-1.92,3.53c-1.28,1.18-3.03,2.18-5.25,3
		c-0.02,0.12-0.02,0.26-0.02,0.41c0,1.05,0.29,1.91,0.87,2.58c0.58,0.66,1.33,1,2.25,1c0.72,0,1.41-0.22,2.08-0.68
		C105.89,182.68,106.61,181.98,107.37,181.01z M100.04,179.27c1.65-0.73,2.92-1.55,3.8-2.45c0.6-0.61,1.08-1.27,1.44-1.97
		c0.37-0.7,0.55-1.34,0.55-1.9c0-0.72-0.33-1.08-0.99-1.08c-0.99,0-2,0.78-3.01,2.35C100.82,175.78,100.22,177.47,100.04,179.27z"/>
	<path class="st5" d="M143.33,182.8l-0.99,2.22c-0.44,0.08-0.83,0.12-1.17,0.12c-0.67,0-1.58-0.1-2.73-0.3
		c-0.83-0.15-1.65-0.34-2.46-0.56s-1.88-0.54-3.17-0.95c-1.05-0.34-2.1-0.65-3.14-0.94c-0.95,0.9-2.06,1.6-3.35,2.1
		c-1.28,0.5-2.57,0.75-3.85,0.75c-1.5,0-2.7-0.27-3.61-0.81c-0.91-0.54-1.36-1.26-1.36-2.14c0-0.95,0.51-1.69,1.54-2.22
		c1.02-0.53,2.41-0.8,4.15-0.8c1.99,0,4.21,0.36,6.67,1.08c0.46-0.79,0.83-1.63,1.11-2.5c0.28-0.87,0.58-2.08,0.91-3.62l1.63-7.66
		c0.47-2.21,0.91-3.94,1.32-5.18c0.4-1.24,0.88-2.31,1.41-3.21c0.5-0.86,1.08-1.61,1.74-2.27s1.34-1.16,2.04-1.51
		c0.7-0.35,1.39-0.53,2.06-0.53c0.73,0,1.38,0.17,1.93,0.52c0.55,0.34,0.97,0.84,1.25,1.49c0.28,0.65,0.42,1.4,0.42,2.26
		c0,0.78-0.15,1.77-0.44,2.96c-0.29,1.19-0.66,2.29-1.12,3.3l-2.13,0.32c0.64-1.19,1.18-2.48,1.6-3.86s0.64-2.56,0.64-3.52
		c0-0.9-0.19-1.6-0.57-2.09c-0.38-0.49-0.94-0.73-1.67-0.73c-1.57,0-2.89,1.04-3.94,3.12c-0.34,0.67-0.61,1.36-0.83,2.05
		c-0.21,0.7-0.5,1.84-0.85,3.45l-2.04,9.56c-0.44,2.05-0.9,3.67-1.38,4.88s-1.08,2.27-1.81,3.19l0.57,0.18
		c2.31,0.76,4.16,1.31,5.56,1.64c1.4,0.33,2.61,0.49,3.63,0.49C141.62,183.05,142.43,182.97,143.33,182.8z M128.6,182.04l-0.55-0.16
		c-2.74-0.83-4.83-1.24-6.28-1.24c-2.31,0-3.46,0.6-3.46,1.81c0,0.61,0.4,1.13,1.19,1.55c0.79,0.42,1.8,0.63,3,0.63
		c1.16,0,2.28-0.23,3.35-0.69C126.92,183.49,127.83,182.85,128.6,182.04z"/>
	<path class="st5" d="M149.41,171.16l-2.22,8.87c-0.2,0.79-0.3,1.47-0.3,2.02c0,0.54,0.17,0.96,0.5,1.28
		c0.34,0.32,0.77,0.48,1.31,0.48c1.3,0,2.65-1.06,4.06-3.19l0.09-0.14c0.03-0.15,0.05-0.27,0.07-0.37l1.44-8.02l2.25-0.94
		l-2.02,7.54c-0.34,1.24-0.5,2.23-0.5,2.98c0,0.49,0.08,0.89,0.25,1.19c0.17,0.31,0.39,0.46,0.66,0.46c0.47,0,1.23-0.57,2.27-1.7
		l0.37,0.32l-0.23,0.25c-0.87,1.02-1.51,1.71-1.93,2.07c-0.41,0.36-0.79,0.54-1.15,0.54c-0.47,0-0.88-0.24-1.2-0.72
		c-0.33-0.48-0.49-1.08-0.49-1.8c0-0.23,0.01-0.44,0.02-0.64c-1.59,2.11-3.16,3.16-4.72,3.16c-0.78,0-1.4-0.23-1.87-0.68
		c-0.47-0.45-0.7-1.05-0.7-1.8c0-0.58,0.08-1.29,0.25-2.13l1.56-8.11L149.41,171.16z"/>
	<path class="st5" d="M171.82,171.02l-2.15,8.39c-0.23,0.92-0.34,1.64-0.34,2.15c0,0.46,0.1,0.86,0.3,1.19s0.44,0.5,0.73,0.5
		c0.44,0,1.18-0.54,2.2-1.63l0.32,0.32l-0.25,0.3c-0.81,0.93-1.43,1.58-1.87,1.96s-0.81,0.56-1.13,0.56c-0.49,0-0.91-0.26-1.27-0.77
		c-0.36-0.51-0.54-1.1-0.54-1.78c0-0.49,0.18-1.6,0.55-3.32l0.18-0.87c-0.57,1.31-1.32,2.58-2.27,3.78
		c-1.59,2.02-3.11,3.03-4.56,3.03c-0.87,0-1.56-0.31-2.06-0.94c-0.5-0.63-0.76-1.47-0.76-2.52c0-1.44,0.41-2.94,1.23-4.52
		c0.82-1.57,1.83-2.87,3.05-3.88c1.21-1.02,2.4-1.52,3.54-1.52c1.21,0,2.11,0.44,2.7,1.33l0.25-0.87L171.82,171.02z M169.19,173.95
		c-0.18-0.58-0.49-1.03-0.93-1.36c-0.44-0.33-0.94-0.49-1.5-0.49c-0.67,0-1.38,0.31-2.13,0.93c-0.75,0.62-1.44,1.48-2.06,2.58
		c-0.49,0.87-0.9,1.83-1.23,2.89c-0.33,1.05-0.49,1.93-0.49,2.61c0,0.78,0.15,1.39,0.45,1.83s0.72,0.66,1.27,0.66
		c0.7,0,1.44-0.33,2.2-0.99c0.76-0.66,1.52-1.6,2.27-2.82c0.46-0.7,0.82-1.41,1.08-2.11s0.55-1.68,0.87-2.93L169.19,173.95z"/>
	<path class="st5" d="M174.39,184.79l2.43-12.7l2.18-0.94l-1.97,8.41c1.27-2.67,2.53-4.71,3.78-6.1c1.25-1.39,2.45-2.08,3.6-2.08
		c0.57,0,1.02,0.19,1.38,0.56c0.35,0.37,0.53,0.88,0.53,1.5c0,0.35-0.08,0.85-0.25,1.49l-0.23,0.96l-0.69,2.8l-0.23,0.89
		c-0.23,0.92-0.34,1.62-0.34,2.11c0,0.49,0.08,0.88,0.25,1.18s0.39,0.45,0.67,0.45c0.47,0,1.23-0.57,2.27-1.7l0.37,0.32l-0.23,0.25
		c-0.87,1.02-1.51,1.71-1.93,2.07c-0.41,0.36-0.79,0.54-1.15,0.54c-0.47,0-0.88-0.24-1.2-0.72c-0.33-0.48-0.49-1.08-0.49-1.8
		c0-0.49,0.09-1.21,0.28-2.18l0.89-4.86c0.12-0.76,0.18-1.3,0.18-1.6c0-0.32-0.08-0.56-0.25-0.73c-0.17-0.17-0.4-0.25-0.69-0.25
		c-1.05,0-2.35,1.13-3.9,3.39c-0.75,1.08-1.37,2.16-1.86,3.22c-0.49,1.06-1.04,2.53-1.65,4.41l-0.21,0.62L174.39,184.79z"/>
</g>
<g>
</g>
<g>
</g>
<g>
</g>
<g>
</g>
<g>
</g>
<g>
</g>
<g>
</g>
<g>
</g>
<g>
</g>
<g>
</g>
<g>
</g>
</svg>
